<?xml version="1.0" encoding="UTF-8" standalone="no"?>
<svg
   xmlns:dc="http://purl.org/dc/elements/1.1/"
   xmlns:cc="http://creativecommons.org/ns#"
   xmlns:rdf="http://www.w3.org/1999/02/22-rdf-syntax-ns#"
   xmlns:svg="http://www.w3.org/2000/svg"
   xmlns="http://www.w3.org/2000/svg"
   id="svg8"
   version="1.1"
   viewBox="0 0 96.681236 96.687172"
   height="96.687172mm"
   width="96.681236mm">
  <defs
     id="defs2" />
  <metadata
     id="metadata5">
    <rdf:RDF>
      <cc:Work
         rdf:about="">
        <dc:format>image/svg+xml</dc:format>
        <dc:type
           rdf:resource="http://purl.org/dc/dcmitype/StillImage" />
        <dc:title></dc:title>
      </cc:Work>
    </rdf:RDF>
  </metadata>
  <g
     transform="translate(362.63113,-186.09546)"
     id="layer1">
    <path
       id="path905"
       d="m -362.45089,234.61929 -0.18024,-48.16333 48.16037,-0.18025 48.16038,-0.18025 0.18024,48.16334 0.18025,48.16332 -48.16037,0.18025 -48.16039,0.18026 z m 65.26484,12.63892 c 2.98438,-1.75809 4.67245,-5.92846 4.23042,-10.45127 -0.56739,-5.80561 -4.08084,-9.16973 -9.12039,-8.73279 -1.62308,0.14072 -2.40697,0.44638 -3.57896,1.39552 l -1.50067,1.21532 -0.0177,-4.72491 -0.0177,-4.72489 -17.51609,0.16334 -17.51609,0.16335 -6.88673,12.81935 c -3.78769,7.05062 -6.88866,12.94823 -6.89103,13.10577 -0.002,0.15756 6.88266,0.21646 15.30006,0.13089 l 15.30437,-0.15558 6.93995,-12.93055 6.93996,-12.93054 0.14759,12.99809 0.14757,12.9981 1.87639,-0.007 c 1.84797,-0.007 1.87633,-0.0247 1.87203,-1.17484 l -0.004,-1.1678 1.32815,1.15742 c 0.73046,0.63658 1.79102,1.2576 2.35677,1.38005 0.56575,0.12246 1.1982,0.28811 1.40544,0.36811 0.8284,0.31982 4.09217,-0.24189 5.20101,-0.89511 z m -6.75906,-2.84192 c -2.04232,-0.91128 -2.96287,-2.65001 -3.12438,-5.90131 -0.16929,-3.40756 0.6976,-5.59031 2.61831,-6.59275 1.81561,-0.94757 4.34322,-0.54365 5.6446,0.902 2.59522,2.88295 2.277,9.29751 -0.55401,11.16776 -1.28183,0.84681 -3.23291,1.02739 -4.58452,0.4243 z m 26.55355,2.38268 c 1.66312,-1.03096 3.06539,-3.15639 3.59981,-5.45623 0.24026,-1.03396 0.23724,-1.03566 -1.82872,-1.02793 -1.87602,0.007 -2.09047,0.093 -2.2948,0.92029 -0.36726,1.48693 -2.03492,3.18901 -3.37618,3.44583 -3.84465,0.73622 -6.57387,-3.70024 -5.4781,-8.90487 0.58092,-2.75921 2.26657,-4.45876 4.43033,-4.46686 2.04468,-0.008 3.56481,0.80542 4.15876,2.22439 0.45008,1.07526 0.60209,1.14433 2.50292,1.13722 2.2833,-0.009 2.36449,-0.16171 1.30731,-2.46629 -1.33631,-2.91306 -3.91932,-4.29868 -7.96269,-4.2715 -5.30274,0.0357 -8.69109,3.99218 -8.69493,10.15302 -0.003,5.3055 2.31099,8.70143 6.70031,9.8318 1.97878,0.50959 5.12866,10e-4 6.93598,-1.11887 z"
       style="fill:#000000;stroke-width:0.37626711" />
  </g>
</svg>
