<?xml version="1.0" encoding="UTF-8" standalone="no"?>
<svg
   xmlns:dc="http://purl.org/dc/elements/1.1/"
   xmlns:cc="http://creativecommons.org/ns#"
   xmlns:rdf="http://www.w3.org/1999/02/22-rdf-syntax-ns#"
   xmlns:svg="http://www.w3.org/2000/svg"
   xmlns="http://www.w3.org/2000/svg"
   id="svg8"
   version="1.1"
   viewBox="0 0 127.1076 125.24083"
   height="125.24083mm"
   width="127.1076mm">
  <defs
     id="defs2" />
  <metadata
     id="metadata5">
    <rdf:RDF>
      <cc:Work
         rdf:about="">
        <dc:format>image/svg+xml</dc:format>
        <dc:type
           rdf:resource="http://purl.org/dc/dcmitype/StillImage" />
        <dc:title></dc:title>
      </cc:Work>
    </rdf:RDF>
  </metadata>
  <g
     transform="translate(-55.130727,-61.26649)"
     id="layer1">
    <g
       transform="translate(108.32158,-6.7132093)"
       id="layer1-3">
      <rect
         y="67.979027"
         x="-53.190662"
         height="125.39915"
         width="127.28523"
         id="rect943"
         style="fill:#000000;fill-opacity:1;stroke-width:0.26963022" />
      <rect
         y="102.14237"
         x="-18.8664"
         height="66.756615"
         width="67.077606"
         id="rect993"
         style="fill:#ffffff;fill-opacity:1;stroke-width:0.22124226" />
      <g
         transform="matrix(0.76811842,0,0,0.75763628,-32.256193,86.809779)"
         id="g1009">
        <g
           id="layer1-2"
           transform="translate(-16.780915,-108.51792)"
           style="display:inline">
          <rect
             style="display:inline;fill:#000000;fill-opacity:1;stroke-width:0.26353046"
             id="rect964-1-2"
             width="121.02428"
             height="120.42162"
             x="16.18886"
             y="108.50647" />
        </g>
        <g
           transform="translate(-2.4356748,-1.4816239)"
           id="layer2">
          <g
             style="fill:#000000"
             id="g1161"
             transform="matrix(1.5936532,0,0,1.6040365,24.903173,20.776131)">
            <path
               id="path1150"
               d="m 7.0999974,1.5630499 c -2.024,0 -3.3847656,1.4607656 -3.3847656,3.6347656 V 45.926331 c 0,2.175 1.3607656,3.636719 3.3847656,3.636719 1.108,0 1.8529531,-0.299094 2.6269534,-0.746094 L 44.484763,28.924378 c 0.551,-0.318 2.230469,-1.283328 2.230469,-3.361328 0,-2.08 -1.678469,-3.045281 -2.230469,-3.363281 l -2.566406,-1.47461 C 39.616192,13.127806 32.55704,7.5825812 24.215232,7.5825811 c -1.497214,0 -2.945043,0.1982642 -4.339844,0.5351563 L 9.7308568,2.3091437 C 8.9528568,1.8611436 8.2079974,1.5630499 7.0999974,1.5630499 Z M 24.215232,9.5825811 c 9.124562,0 16.5,7.3754379 16.5,16.4999999 0,0.973644 -0.104019,1.919739 -0.265625,2.845703 l -7.052734,4.03711 c 1.448634,-1.923882 2.318359,-4.30871 2.318359,-6.902344 0,-6.351 -5.149,-11.5 -11.5,-11.5 -6.351,0 -11.5,5.149 -11.5,11.5 0,6.351 5.149,11.5 11.5,11.5 0.432884,0 0.858831,-0.02763 1.279297,-0.07422 l -7.070313,4.046875 C 12.171312,39.191765 7.7152318,33.165783 7.7152318,26.082581 c 0,-9.124562 7.3754382,-16.4999997 16.5000002,-16.4999999 z m 0.5,9.9804689 h 4 v 2.875 h -2.5 v 6.5 c 0,1.461 -1.389,2.625 -2.875,2.625 -1.457,0 -2.625,-1.174063 -2.625,-2.664062 0,-1.461 1.17025,-2.66211 2.65625,-2.66211 0.486,0 0.94375,0.142094 1.34375,0.371094 z"
               style="fill:#ffffff" />
          </g>
        </g>
      </g>
    </g>
  </g>
</svg>
