<?xml version="1.0" encoding="UTF-8" standalone="no"?>
<svg
   xmlns:dc="http://purl.org/dc/elements/1.1/"
   xmlns:cc="http://creativecommons.org/ns#"
   xmlns:rdf="http://www.w3.org/1999/02/22-rdf-syntax-ns#"
   xmlns:svg="http://www.w3.org/2000/svg"
   xmlns="http://www.w3.org/2000/svg"
   id="svg8"
   version="1.1"
   viewBox="0 0 96.308334 96.308334"
   height="96.308334mm"
   width="96.308334mm">
  <defs
     id="defs2" />
  <metadata
     id="metadata5">
    <rdf:RDF>
      <cc:Work
         rdf:about="">
        <dc:format>image/svg+xml</dc:format>
        <dc:type
           rdf:resource="http://purl.org/dc/dcmitype/StillImage" />
        <dc:title></dc:title>
      </cc:Work>
    </rdf:RDF>
  </metadata>
  <g
     transform="translate(22.451785,-103.70298)"
     id="layer1">
    <g
       transform="matrix(0.18862028,0,0,0.18280306,-8.7924027,121.52117)"
       id="g879">
      <g
         id="g821">
	<path
   style="clip-rule:evenodd;fill-rule:evenodd"
   d="M 244.424,83.438 H 119.577 c -19.925,0 -36.139,16.213 -36.139,36.139 v 124.846 c 0,19.929 16.214,36.143 36.139,36.143 h 124.847 c 19.928,0 36.142,-16.214 36.142,-36.143 V 119.577 c 0,-19.925 -16.214,-36.139 -36.142,-36.139 z m -62.426,163.456 c -35.779,0 -64.892,-29.113 -64.892,-64.896 0,-35.779 29.113,-64.892 64.892,-64.892 35.783,0 64.896,29.113 64.896,64.892 0,35.783 -29.113,64.896 -64.896,64.896 z m 66.984,-116.369 c -8.471,0 -15.359,-6.888 -15.359,-15.354 0,-8.467 6.888,-15.355 15.359,-15.355 8.466,0 15.354,6.888 15.354,15.355 0,8.467 -6.888,15.354 -15.354,15.354 z"
   id="path815" />

	<path
   style="clip-rule:evenodd;fill-rule:evenodd"
   d="m 181.998,144.531 c -20.655,0 -37.475,16.812 -37.475,37.467 0,20.663 16.82,37.479 37.475,37.479 20.663,0 37.471,-16.816 37.471,-37.479 0,-20.655 -16.808,-37.467 -37.471,-37.467 z"
   id="path817" />

	<path
   style="clip-rule:evenodd;fill-rule:evenodd"
   d="m -119.17741,-104.85644 28.304634,560.48962 553.194136,4.58166 8.93831,-590.02852 z M 307.984,244.423 c 0,35.053 -28.508,63.561 -63.56,63.561 H 119.577 c -35.049,0 -63.561,-28.508 -63.561,-63.561 V 119.577 c 0,-35.049 28.512,-63.561 63.561,-63.561 h 124.847 c 35.052,0 63.56,28.512 63.56,63.561 z"
   id="path819" />

<rect
   y="-104.85644"
   x="-119.17741"
   height="626.1601"
   width="667.39349"
   id="rect881"
   style="fill:none;fill-opacity:1;stroke-width:1.49319243" />
</g>
      <g
         id="g823">
</g>
      <g
         id="g825">
</g>
      <g
         id="g827">
</g>
      <g
         id="g829">
</g>
      <g
         id="g831">
</g>
      <g
         id="g833">
</g>
      <g
         id="g835">
</g>
      <g
         id="g837">
</g>
      <g
         id="g839">
</g>
      <g
         id="g841">
</g>
      <g
         id="g843">
</g>
      <g
         id="g845">
</g>
      <g
         id="g847">
</g>
      <g
         id="g849">
</g>
      <g
         id="g851">
</g>
    </g>
  </g>
</svg>
