<?xml version="1.0" encoding="UTF-8" standalone="no"?>
<svg
   xmlns:dc="http://purl.org/dc/elements/1.1/"
   xmlns:cc="http://creativecommons.org/ns#"
   xmlns:rdf="http://www.w3.org/1999/02/22-rdf-syntax-ns#"
   xmlns:svg="http://www.w3.org/2000/svg"
   xmlns="http://www.w3.org/2000/svg"
   id="svg8"
   version="1.1"
   viewBox="0 0 127.1076 125.24083"
   height="125.24083mm"
   width="127.1076mm">
  <defs
     id="defs2" />
  <metadata
     id="metadata5">
    <rdf:RDF>
      <cc:Work
         rdf:about="">
        <dc:format>image/svg+xml</dc:format>
        <dc:type
           rdf:resource="http://purl.org/dc/dcmitype/StillImage" />
        <dc:title></dc:title>
      </cc:Work>
    </rdf:RDF>
  </metadata>
  <g
     transform="translate(-55.130727,-61.26649)"
     id="layer1">
    <g
       transform="translate(108.32158,-6.7132093)"
       id="layer1-3">
      <rect
         y="67.979027"
         x="-53.190662"
         height="125.39915"
         width="127.28523"
         id="rect943"
         style="fill:#000000;fill-opacity:1;stroke-width:0.26963022" />
      <rect
         y="90.321754"
         x="-25.501732"
         height="78.577232"
         width="73.712936"
         id="rect993"
         style="fill:#ffffff;fill-opacity:1;stroke-width:0.2516242" />
      <g
         transform="matrix(0.69765231,0,0,0.74579463,-29.735212,86.616811)"
         id="g977">
        <g
           id="layer1-7"
           transform="translate(-16.780915,-108.51792)"
           style="display:inline">
          <rect
             style="fill:#000000;fill-opacity:1;stroke-width:0.11651453"
             id="rect964-5"
             width="23.657618"
             height="120.42162"
             x="16.781122"
             y="108.51896" />
          <rect
             style="display:inline;fill:#000000;fill-opacity:1;stroke-width:0.11651453"
             id="rect964-1"
             width="23.657618"
             height="120.42162"
             x="113.55553"
             y="108.50647" />
          <rect
             style="display:inline;fill:#000000;fill-opacity:1;stroke-width:0.07629813"
             id="rect964-1-7"
             width="86.893036"
             height="14.059124"
             x="28.925591"
             y="108.51865" />
          <rect
             style="display:inline;fill:#000000;fill-opacity:1;stroke-width:0.07629813"
             id="rect964-1-7-7"
             width="86.893044"
             height="14.059125"
             x="27.19165"
             y="214.86899" />
        </g>
        <g
           id="layer2-5">
          <path
             id="path1034"
             d="m 112.68791,34.769066 c -0.004,-3.281139 -0.27882,-6.539563 -1.03444,-9.741216 -1.36471,-5.812959 -4.57445,-10.267269 -9.39469,-13.521917 -2.472475,-1.6689483 -5.187074,-2.6983283 -8.085071,-3.2357253 -2.230369,-0.412513 -4.479084,-0.601748 -6.742467,-0.669833 -0.17608,-0.0076 -0.359511,-0.03433 -0.535591,-0.05292 H 35.083663 c -0.653028,0.03719 -1.305916,0.07581 -1.958901,0.112998 -3.220821,0.189235 -6.419641,0.552544 -9.446039,1.786279 -5.766674,2.3539423 -9.919264,6.4563013 -12.355054,12.3525053 -0.82537,1.998199 -1.25822,4.117508 -1.5627198,6.263291 -0.24582,1.740864 -0.38516,3.489282 -0.43286,5.249056 -0.004,0.135883 -0.0333,0.272483 -0.0444,0.408795 v 54.341187 c 0.0361,0.62821 0.0693,1.256421 0.10953,1.884674 0.21643,3.621733 0.6639798,7.22076 2.1423298,10.54731 2.80264,6.31249 7.48713,10.46026 13.936123,12.45467 1.815844,0.56384 3.686703,0.83261 5.572245,1.01426 2.388109,0.23458 4.783553,0.27248 7.178997,0.27248 15.843663,0 31.687326,0 47.531002,-0.008 2.263383,0 4.515755,-0.14761 6.764456,-0.43898 3.547322,-0.4693 6.881863,-1.55918 9.893598,-3.60279 3.62434,-2.45992 6.34259,-5.72212 8.09975,-9.81692 0.80332,-1.873299 1.26196,-3.863929 1.59207,-5.88484 0.4915,-3.001076 0.59798,-6.036223 0.59424,-9.07137 -0.007,-16.882512 0.004,-33.761248 -0.011,-50.64376 M 85.009228,52.506553 c 0,8.465857 0.0037,16.931717 -0.0037,25.393782 0,1.854393 -0.245819,3.674714 -1.045535,5.362599 -1.243523,2.62641 -3.279524,4.276447 -5.979438,5.067403 -1.504026,0.442836 -3.041081,0.696294 -4.60747,0.768242 -4.101229,0.200535 -7.644879,-2.668048 -8.378542,-6.827179 -0.608936,-3.432511 0.983144,-7.216989 4.479071,-8.984332 1.393983,-0.711454 2.883328,-1.108808 4.387368,-1.441878 1.628757,-0.363308 3.264845,-0.681276 4.886264,-1.067184 1.18127,-0.280061 1.969908,-1.025562 2.201019,-2.293395 0.05546,-0.280062 0.07764,-0.571426 0.07764,-0.859068 0.0037,-8.068479 0.0037,-16.13318 -0.0037,-24.197897 0,-0.276201 -0.04437,-0.556263 -0.109532,-0.821164 -0.168733,-0.669835 -0.641935,-1.078627 -1.309659,-1.040725 -0.689628,0.04148 -1.368306,0.155194 -2.046941,0.295227 -3.275851,0.666113 -6.54804,1.351108 -9.820219,2.03227 -3.341873,0.692576 -6.683761,1.39273 -10.029312,2.089026 -1.973583,0.412514 -3.947152,0.821163 -5.920732,1.233678 -0.06932,0.01572 -0.139343,0.03719 -0.205475,0.05721 -1.192226,0.340569 -1.625095,0.904412 -1.680123,2.176066 -0.0073,0.192952 -0.0037,0.386051 -0.0037,0.582866 -0.0037,11.565343 0,23.13446 -0.0073,34.696011 0,1.869525 -0.201731,3.716351 -0.928103,5.453428 -1.19957,2.853462 -3.319883,4.628375 -6.181209,5.487453 -1.51136,0.450281 -3.063083,0.707742 -4.633147,0.764521 -4.130569,0.15892 -7.560498,-2.671836 -8.268485,-6.865037 -0.61268,-3.614166 0.990494,-7.493249 4.966955,-9.23031 1.537052,-0.666115 3.151125,-1.033143 4.772544,-1.381289 1.236313,-0.268764 2.476151,-0.510921 3.70872,-0.783402 1.647098,-0.370891 2.509163,-1.438103 2.57886,-3.17518 0.0073,-0.226994 0.0037,-0.442836 0.0037,-0.669833 0,-13.158594 0,-26.32098 0.0073,-39.479574 0,-0.548825 0.05546,-1.11267 0.179824,-1.646248 0.300726,-1.267862 1.177528,-1.990618 2.351411,-2.304738 1.100439,-0.295224 2.219362,-0.499478 3.334554,-0.734199 3.158458,-0.658533 6.316916,-1.313204 9.475375,-1.967919 3.264842,-0.681276 6.526027,-1.358546 9.790869,-2.039837 2.883342,-0.601748 5.766668,-1.211077 8.657344,-1.797621 0.946404,-0.192954 1.907545,-0.389771 2.861326,-0.469298 1.335307,-0.110137 2.252374,0.756941 2.38811,2.142007 0.03328,0.329266 0.0513,0.662252 0.0513,0.995381 0.0073,8.496138 0.0073,16.988485 0.0037,25.480835 z"
             style="stroke-width:3.72596455" />
        </g>
      </g>
    </g>
  </g>
</svg>
