<?xml version="1.0" encoding="UTF-8" standalone="no"?>
<svg
   xmlns:dc="http://purl.org/dc/elements/1.1/"
   xmlns:cc="http://creativecommons.org/ns#"
   xmlns:rdf="http://www.w3.org/1999/02/22-rdf-syntax-ns#"
   xmlns:svg="http://www.w3.org/2000/svg"
   xmlns="http://www.w3.org/2000/svg"
   id="svg1524"
   version="1.1"
   viewBox="0 0 120.38541 120.38541"
   height="120.38541mm"
   width="120.38541mm">
  <defs
     id="defs1518" />
  <metadata
     id="metadata1521">
    <rdf:RDF>
      <cc:Work
         rdf:about="">
        <dc:format>image/svg+xml</dc:format>
        <dc:type
           rdf:resource="http://purl.org/dc/dcmitype/StillImage" />
        <dc:title></dc:title>
      </cc:Work>
    </rdf:RDF>
  </metadata>
  <g
     transform="translate(50.365327,-69.741816)"
     id="layer1">
    <g
       transform="matrix(0.23118441,5.6695969e-4,-5.8170281e-4,0.2253251,-42.233832,80.815872)"
       id="g2124">
      <path
         style="clip-rule:evenodd;fill-rule:evenodd"
         d="m -47.539583,-55.629465 3.701037,547.510445 547.501376,5.698 -11.81449,-555.793082 z M 341.098,251.727 c 10.445,10.19 21.49,19.784 30.865,31.049 4.142,4.978 8.06,10.113 11.046,15.881 4.239,8.264 0.397,17.318 -6.985,17.817 l -45.875,-0.02 c -11.841,0.973 -21.277,-3.801 -29.235,-11.902 -6.328,-6.45 -12.243,-13.354 -18.352,-20.023 -2.486,-2.746 -5.115,-5.314 -8.239,-7.362 -6.267,-4.061 -11.703,-2.828 -15.285,3.699 -3.643,6.649 -4.499,14.031 -4.835,21.435 -0.499,10.807 -3.76,13.634 -14.607,14.154 -23.208,1.075 -45.218,-2.451 -65.659,-14.134 -18.052,-10.307 -32.022,-24.879 -44.184,-41.356 -23.702,-32.124 -41.855,-67.391 -58.154,-103.673 -3.684,-8.177 -0.993,-12.559 7.999,-12.717 14.99,-0.296 29.974,-0.26 44.943,-0.02 6.089,0.102 10.129,3.582 12.458,9.334 8.101,19.906 18.01,38.85 30.448,56.427 3.327,4.677 6.71,9.334 11.504,12.636 5.314,3.663 9.375,2.466 11.881,-3.485 1.595,-3.78 2.293,-7.8 2.629,-11.841 1.192,-13.833 1.335,-27.681 -0.718,-41.473 -1.274,-8.621 -6.149,-14.195 -14.745,-15.825 -4.382,-0.836 -3.725,-2.446 -1.615,-4.958 3.704,-4.315 7.189,-7.006 14.093,-7.006 h 51.847 c 8.177,1.595 10.011,5.278 11.122,13.497 l 0.041,57.619 c -0.097,3.184 1.595,12.615 7.306,14.704 4.575,1.513 7.622,-2.171 10.368,-5.075 12.417,-13.176 21.277,-28.756 29.194,-44.877 3.505,-7.087 6.532,-14.449 9.477,-21.817 2.17,-5.452 5.553,-8.137 11.703,-8.04 l 49.916,0.061 c 1.472,0 2.986,0 4.438,0.239 8.396,1.452 10.705,5.075 8.096,13.293 -4.076,12.875 -12.06,23.625 -19.84,34.391 -8.341,11.525 -17.216,22.647 -25.495,34.233 -7.562,10.609 -6.966,15.943 2.449,25.135 z"
         id="path2069" />
      <g
         id="g2071">
</g>
      <g
         id="g2073">
</g>
      <g
         id="g2075">
</g>
      <g
         id="g2077">
</g>
      <g
         id="g2079">
</g>
      <g
         id="g2081">
</g>
      <g
         id="g2083">
</g>
      <g
         id="g2085">
</g>
      <g
         id="g2087">
</g>
      <g
         id="g2089">
</g>
      <g
         id="g2091">
</g>
      <g
         id="g2093">
</g>
      <g
         id="g2095">
</g>
      <g
         id="g2097">
</g>
      <g
         id="g2099">
</g>
    </g>
  </g>
</svg>
