<?xml version="1.0" encoding="UTF-8" standalone="no"?>
<svg
   xmlns:dc="http://purl.org/dc/elements/1.1/"
   xmlns:cc="http://creativecommons.org/ns#"
   xmlns:rdf="http://www.w3.org/1999/02/22-rdf-syntax-ns#"
   xmlns:svg="http://www.w3.org/2000/svg"
   xmlns="http://www.w3.org/2000/svg"
   id="svg916"
   version="1.1"
   viewBox="0 0 120.38541 120.38541"
   height="120.38541mm"
   width="120.38541mm">
  <defs
     id="defs910" />
  <metadata
     id="metadata913">
    <rdf:RDF>
      <cc:Work
         rdf:about="">
        <dc:format>image/svg+xml</dc:format>
        <dc:type
           rdf:resource="http://purl.org/dc/dcmitype/StillImage" />
        <dc:title></dc:title>
      </cc:Work>
    </rdf:RDF>
  </metadata>
  <g
     transform="translate(271.10342,-135.50967)"
     id="layer1">
    <g
       transform="matrix(0.21972462,0,0,0.21224817,-259.76414,147.98288)"
       id="g1516">
      <path
         style="clip-rule:evenodd;fill-rule:evenodd"
         d="m -77.410208,-74.79452 v 606.36986 l 592.618148,0 0,-602.808216 z M 352.751,163.259 c 0.123,2.773 0.186,5.561 0.186,8.36 0,85.403 -65.002,183.876 -183.873,183.876 -36.496,0 -70.466,-10.697 -99.065,-29.037 5.056,0.601 10.199,0.907 15.417,0.907 30.278,0 58.143,-10.331 80.262,-27.668 -28.28,-0.519 -52.148,-19.204 -60.373,-44.88 3.948,0.757 7.997,1.163 12.161,1.163 5.894,0 11.604,-0.794 17.027,-2.268 -29.563,-5.939 -51.841,-32.057 -51.841,-63.368 0,-0.273 0,-0.544 0.006,-0.814 8.712,4.84 18.676,7.748 29.271,8.084 -17.342,-11.589 -28.748,-31.371 -28.748,-53.79 0,-11.845 3.187,-22.945 8.751,-32.492 31.873,39.101 79.493,64.828 133.203,67.526 -1.103,-4.732 -1.677,-9.665 -1.677,-14.729 0,-35.688 28.938,-64.623 64.626,-64.623 18.589,0 35.385,7.847 47.173,20.406 14.719,-2.895 28.551,-8.276 41.038,-15.681 -4.824,15.092 -15.071,27.754 -28.415,35.754 13.074,-1.563 25.528,-5.038 37.118,-10.178 -8.662,12.959 -19.618,24.342 -32.247,33.452 z"
         id="path1461" />
      <g
         id="g1463">
</g>
      <g
         id="g1465">
</g>
      <g
         id="g1467">
</g>
      <g
         id="g1469">
</g>
      <g
         id="g1471">
</g>
      <g
         id="g1473">
</g>
      <g
         id="g1475">
</g>
      <g
         id="g1477">
</g>
      <g
         id="g1479">
</g>
      <g
         id="g1481">
</g>
      <g
         id="g1483">
</g>
      <g
         id="g1485">
</g>
      <g
         id="g1487">
</g>
      <g
         id="g1489">
</g>
      <g
         id="g1491">
</g>
    </g>
  </g>
</svg>
